<svg width="14" height="18" viewBox="0 0 14 18" fill="none" xmlns="http://www.w3.org/2000/svg">
<path d="M6.9998 0C3.34612 0 0.373291 2.97283 0.373291 6.62688C0.373291 7.57999 0.568372 8.49001 0.952825 9.33186C2.60964 12.9574 5.78621 16.7851 6.72053 17.8718C6.79053 17.953 6.89259 17.9998 6.99998 17.9998C7.10738 17.9998 7.20943 17.953 7.27944 17.8718C8.2134 16.7853 11.39 12.9577 13.0473 9.33186C13.432 8.49001 13.6269 7.57999 13.6269 6.62688C13.6265 2.97283 10.6537 0 6.9998 0ZM6.9998 10.0689C5.10185 10.0689 3.5576 8.52464 3.5576 6.62669C3.5576 4.72856 5.10185 3.1843 6.9998 3.1843C8.89775 3.1843 10.442 4.72856 10.442 6.62669C10.4422 8.52464 8.89793 10.0689 6.9998 10.0689Z" fill="#202020"/>
</svg>
